{
    "asset" : {
        "generator" : "Khronos glTF Blender I/O v3.2.40",
        "version" : "2.0"
    },
    "scene" : 0,
    "scenes" : [
        {
            "name" : "Scene",
            "nodes" : [
                0
            ]
        }
    ],
    "nodes" : [
        {
            "mesh" : 0,
            "name" : "Cylinder.002",
            "rotation" : [
                0,
                0,
                1,
                1.6292068494294654e-07
            ],
            "scale" : [
                0.7979819178581238,
                1.6017712354660034,
                0.7979819178581238
            ],
            "translation" : [
                0,
                40.30961608886719,
                0
            ]
        }
    ],
    "materials" : [
        {
            "doubleSided" : true,
            "name" : "Material.001",
            "pbrMetallicRoughness" : {
                "baseColorFactor" : [
                    0.027452409267425537,
                    0.2568647563457489,
                    0.8000000715255737,
                    1
                ],
                "metallicFactor" : 0,
                "roughnessFactor" : 0.5
            }
        },
        {
            "doubleSided" : true,
            "name" : "Material.002",
            "pbrMetallicRoughness" : {
                "baseColorFactor" : [
                    0.8000000715255737,
                    0.045644983649253845,
                    0.026866544038057327,
                    1
                ],
                "metallicFactor" : 0,
                "roughnessFactor" : 0.5
            }
        }
    ],
    "meshes" : [
        {
            "extras" : {
                "targetNames" : [
                    "SimpleDeform"
                ]
            },
            "name" : "Cylinder.010",
            "primitives" : [
                {
                    "attributes" : {
                        "POSITION" : 0,
                        "NORMAL" : 1,
                        "TEXCOORD_0" : 2
                    },
                    "indices" : 3,
                    "material" : 0,
                    "targets" : [
                        {
                            "POSITION" : 4,
                            "NORMAL" : 5
                        }
                    ]
                },
                {
                    "attributes" : {
                        "POSITION" : 6,
                        "NORMAL" : 7,
                        "TEXCOORD_0" : 8
                    },
                    "indices" : 9,
                    "material" : 1,
                    "targets" : [
                        {
                            "POSITION" : 10,
                            "NORMAL" : 11
                        }
                    ]
                }
            ],
            "weights" : [
                0
            ]
        }
    ],
    "accessors" : [
        {
            "bufferView" : 0,
            "componentType" : 5126,
            "count" : 384,
            "max" : [
                6.286805629730225,
                1.0000008344650269,
                1.0000007152557373
            ],
            "min" : [
                -6.286804676055908,
                -1.0000009536743164,
                -1.0000007152557373
            ],
            "type" : "VEC3"
        },
        {
            "bufferView" : 1,
            "componentType" : 5126,
            "count" : 384,
            "type" : "VEC3"
        },
        {
            "bufferView" : 2,
            "componentType" : 5126,
            "count" : 384,
            "type" : "VEC2"
        },
        {
            "bufferView" : 3,
            "componentType" : 5123,
            "count" : 744,
            "type" : "SCALAR"
        },
        {
            "bufferView" : 4,
            "componentType" : 5126,
            "count" : 384,
            "max" : [
                0.44063711166381836,
                0,
                1.6287503242492676
            ],
            "min" : [
                -0.44063377380371094,
                0,
                -1.6288199424743652
            ],
            "type" : "VEC3"
        },
        {
            "bufferView" : 5,
            "componentType" : 5126,
            "count" : 384,
            "type" : "VEC3"
        },
        {
            "bufferView" : 6,
            "componentType" : 5126,
            "count" : 384,
            "max" : [
                5.2808451652526855,
                0.4981881082057953,
                1.0000004768371582
            ],
            "min" : [
                -5.280844211578369,
                -0.4981878399848938,
                -1.0000004768371582
            ],
            "type" : "VEC3"
        },
        {
            "bufferView" : 7,
            "componentType" : 5126,
            "count" : 384,
            "type" : "VEC3"
        },
        {
            "bufferView" : 8,
            "componentType" : 5126,
            "count" : 384,
            "type" : "VEC2"
        },
        {
            "bufferView" : 9,
            "componentType" : 5123,
            "count" : 744,
            "type" : "SCALAR"
        },
        {
            "bufferView" : 10,
            "componentType" : 5126,
            "count" : 384,
            "max" : [
                10.56698989868164,
                0,
                6.158281326293945
            ],
            "min" : [
                -10.56698989868164,
                0,
                -6.1582794189453125
            ],
            "type" : "VEC3"
        },
        {
            "bufferView" : 11,
            "componentType" : 5126,
            "count" : 384,
            "type" : "VEC3"
        }
    ],
    "bufferViews" : [
        {
            "buffer" : 0,
            "byteLength" : 4608,
            "byteOffset" : 0
        },
        {
            "buffer" : 0,
            "byteLength" : 4608,
            "byteOffset" : 4608
        },
        {
            "buffer" : 0,
            "byteLength" : 3072,
            "byteOffset" : 9216
        },
        {
            "buffer" : 0,
            "byteLength" : 1488,
            "byteOffset" : 12288
        },
        {
            "buffer" : 0,
            "byteLength" : 4608,
            "byteOffset" : 13776
        },
        {
            "buffer" : 0,
            "byteLength" : 4608,
            "byteOffset" : 18384
        },
        {
            "buffer" : 0,
            "byteLength" : 4608,
            "byteOffset" : 22992
        },
        {
            "buffer" : 0,
            "byteLength" : 4608,
            "byteOffset" : 27600
        },
        {
            "buffer" : 0,
            "byteLength" : 3072,
            "byteOffset" : 32208
        },
        {
            "buffer" : 0,
            "byteLength" : 1488,
            "byteOffset" : 35280
        },
        {
            "buffer" : 0,
            "byteLength" : 4608,
            "byteOffset" : 36768
        },
        {
            "buffer" : 0,
            "byteLength" : 4608,
            "byteOffset" : 41376
        }
    ],
    "buffers" : [
        {
            "byteLength" : 45984,
            "uri" : "data:application/octet-stream;base64,"
        }
    ]
}
