{
    "asset" : {
        "generator" : "Khronos glTF Blender I/O v3.2.40",
        "version" : "2.0"
    },
    "scene" : 0,
    "scenes" : [
        {
            "name" : "Scene",
            "nodes" : [
                0,
                1,
                2,
                3,
                4,
                5,
                6,
                7,
                8,
                9,
                10
            ]
        }
    ],
    "nodes" : [
        {
            "mesh" : 0,
            "name" : "Sphere",
            "scale" : [
                0.31690093874931335,
                0.6145322918891907,
                0.4122595489025116
            ],
            "translation" : [
                -7.485576152801514,
                1.3329159021377563,
                8.719654083251953
            ]
        },
        {
            "mesh" : 1,
            "name" : "Sphere.001",
            "rotation" : [
                0.36418694257736206,
                0.3641869127750397,
                -0.6061088442802429,
                0.6061087846755981
            ],
            "scale" : [
                0.49208971858024597,
                0.27512264251708984,
                2.146829128265381
            ],
            "translation" : [
                -7.478130340576172,
                3.178864002227783,
                7.5438337326049805
            ]
        },
        {
            "mesh" : 2,
            "name" : "Sphere.002",
            "rotation" : [
                0.6061087250709534,
                0.6061088442802429,
                -0.36418697237968445,
                0.36418694257736206
            ],
            "scale" : [
                0.49208971858024597,
                0.27512264251708984,
                2.146829128265381
            ],
            "translation" : [
                -7.478130340576172,
                3.178864002227783,
                9.895474433898926
            ]
        },
        {
            "mesh" : 3,
            "name" : "Sphere.003",
            "scale" : [
                0.31690093874931335,
                0.6145322918891907,
                0.4122595489025116
            ],
            "translation" : [
                -7.485576152801514,
                1.3329159021377563,
                3.017803192138672
            ]
        },
        {
            "mesh" : 4,
            "name" : "Sphere.004",
            "rotation" : [
                0.5000000596046448,
                0.5,
                -0.5000000596046448,
                0.4999999701976776
            ],
            "scale" : [
                0.49208971858024597,
                0.27512264251708984,
                2.146829128265381
            ],
            "translation" : [
                -7.478130340576172,
                3.404280662536621,
                3.0269694328308105
            ]
        },
        {
            "mesh" : 5,
            "name" : "Sphere.005",
            "rotation" : [
                0,
                0,
                -0.7071068286895752,
                0.7071068286895752
            ],
            "scale" : [
                0.49208971858024597,
                0.27512264251708984,
                1.107550024986267
            ],
            "translation" : [
                -7.478130340576172,
                1.2667490243911743,
                2.03761625289917
            ]
        },
        {
            "mesh" : 6,
            "name" : "Sphere.006",
            "scale" : [
                0.31690093874931335,
                0.6145322918891907,
                0.4122595489025116
            ],
            "translation" : [
                -7.485576152801514,
                1.3329159021377563,
                -2.7442727088928223
            ]
        },
        {
            "mesh" : 7,
            "name" : "Sphere.007",
            "rotation" : [
                0.5000000596046448,
                0.5,
                -0.5000000596046448,
                0.4999999701976776
            ],
            "scale" : [
                0.49208971858024597,
                0.27512264251708984,
                2.146829128265381
            ],
            "translation" : [
                -7.478130340576172,
                3.404280662536621,
                -2.7351059913635254
            ]
        },
        {
            "mesh" : 8,
            "name" : "Sphere.008",
            "rotation" : [
                0.09847855567932129,
                0.0984785407781601,
                -0.7002156376838684,
                0.700215756893158
            ],
            "scale" : [
                0.30483391880989075,
                0.27512264251708984,
                1.113210678100586
            ],
            "translation" : [
                -7.478130340576172,
                1.0753237009048462,
                -1.7423663139343262
            ]
        },
        {
            "mesh" : 9,
            "name" : "Sphere.009",
            "rotation" : [
                0.9999208450317383,
                0,
                0,
                0.012584277428686619
            ],
            "scale" : [
                0.31690093874931335,
                0.6145322918891907,
                0.412259578704834
            ],
            "translation" : [
                -7.485576152801514,
                4.908358573913574,
                -8.549110412597656
            ]
        },
        {
            "mesh" : 10,
            "name" : "Sphere.010",
            "rotation" : [
                -0.5062524080276489,
                -0.5062525272369385,
                -0.4936683177947998,
                0.4936683177947998
            ],
            "scale" : [
                0.4920896887779236,
                0.27512264251708984,
                2.146829128265381
            ],
            "translation" : [
                -7.478130340576172,
                2.837419271469116,
                -8.506145477294922
            ]
        }
    ],
    "materials" : [
        {
            "doubleSided" : true,
            "name" : "Material",
            "pbrMetallicRoughness" : {
                "metallicFactor" : 0,
                "roughnessFactor" : 0.4000000059604645
            }
        },
        {
            "doubleSided" : true,
            "name" : "Material.001",
            "pbrMetallicRoughness" : {
                "baseColorFactor" : [
                    0.8000000715255737,
                    0.1473829299211502,
                    0.12289059907197952,
                    1
                ],
                "metallicFactor" : 0,
                "roughnessFactor" : 0.5
            }
        }
    ],
    "meshes" : [
        {
            "name" : "Sphere",
            "primitives" : [
                {
                    "attributes" : {
                        "POSITION" : 0,
                        "NORMAL" : 1,
                        "TEXCOORD_0" : 2
                    },
                    "indices" : 3,
                    "material" : 0
                }
            ]
        },
        {
            "name" : "Sphere.001",
            "primitives" : [
                {
                    "attributes" : {
                        "POSITION" : 4,
                        "NORMAL" : 5,
                        "TEXCOORD_0" : 6
                    },
                    "indices" : 3,
                    "material" : 1
                }
            ]
        },
        {
            "name" : "Sphere.002",
            "primitives" : [
                {
                    "attributes" : {
                        "POSITION" : 7,
                        "NORMAL" : 8,
                        "TEXCOORD_0" : 9
                    },
                    "indices" : 3,
                    "material" : 1
                }
            ]
        },
        {
            "name" : "Sphere.003",
            "primitives" : [
                {
                    "attributes" : {
                        "POSITION" : 10,
                        "NORMAL" : 11,
                        "TEXCOORD_0" : 12
                    },
                    "indices" : 3,
                    "material" : 0
                }
            ]
        },
        {
            "name" : "Sphere.004",
            "primitives" : [
                {
                    "attributes" : {
                        "POSITION" : 13,
                        "NORMAL" : 14,
                        "TEXCOORD_0" : 15
                    },
                    "indices" : 3,
                    "material" : 1
                }
            ]
        },
        {
            "name" : "Sphere.005",
            "primitives" : [
                {
                    "attributes" : {
                        "POSITION" : 16,
                        "NORMAL" : 17,
                        "TEXCOORD_0" : 18
                    },
                    "indices" : 3,
                    "material" : 1
                }
            ]
        },
        {
            "name" : "Sphere.006",
            "primitives" : [
                {
                    "attributes" : {
                        "POSITION" : 19,
                        "NORMAL" : 20,
                        "TEXCOORD_0" : 21
                    },
                    "indices" : 3,
                    "material" : 0
                }
            ]
        },
        {
            "name" : "Sphere.007",
            "primitives" : [
                {
                    "attributes" : {
                        "POSITION" : 22,
                        "NORMAL" : 23,
                        "TEXCOORD_0" : 24
                    },
                    "indices" : 3,
                    "material" : 1
                }
            ]
        },
        {
            "name" : "Sphere.008",
            "primitives" : [
                {
                    "attributes" : {
                        "POSITION" : 25,
                        "NORMAL" : 26,
                        "TEXCOORD_0" : 27
                    },
                    "indices" : 3,
                    "material" : 1
                }
            ]
        },
        {
            "name" : "Sphere.009",
            "primitives" : [
                {
                    "attributes" : {
                        "POSITION" : 28,
                        "NORMAL" : 29,
                        "TEXCOORD_0" : 30
                    },
                    "indices" : 31,
                    "material" : 0
                }
            ]
        },
        {
            "name" : "Sphere.010",
            "primitives" : [
                {
                    "attributes" : {
                        "POSITION" : 32,
                        "NORMAL" : 33,
                        "TEXCOORD_0" : 34
                    },
                    "indices" : 3,
                    "material" : 1
                }
            ]
        }
    ],
    "accessors" : [
        {
            "bufferView" : 0,
            "componentType" : 5126,
            "count" : 1984,
            "max" : [
                0.9999997019767761,
                1,
                0.9999994039535522
            ],
            "min" : [
                -0.9999990463256836,
                -1,
                -0.9999987483024597
            ],
            "type" : "VEC3"
        },
        {
            "bufferView" : 1,
            "componentType" : 5126,
            "count" : 1984,
            "type" : "VEC3"
        },
        {
            "bufferView" : 2,
            "componentType" : 5126,
            "count" : 1984,
            "type" : "VEC2"
        },
        {
            "bufferView" : 3,
            "componentType" : 5123,
            "count" : 2880,
            "type" : "SCALAR"
        },
        {
            "bufferView" : 4,
            "componentType" : 5126,
            "count" : 1984,
            "max" : [
                0.9999997019767761,
                1,
                0.9999994039535522
            ],
            "min" : [
                -0.9999990463256836,
                -1,
                -0.9999987483024597
            ],
            "type" : "VEC3"
        },
        {
            "bufferView" : 5,
            "componentType" : 5126,
            "count" : 1984,
            "type" : "VEC3"
        },
        {
            "bufferView" : 6,
            "componentType" : 5126,
            "count" : 1984,
            "type" : "VEC2"
        },
        {
            "bufferView" : 7,
            "componentType" : 5126,
            "count" : 1984,
            "max" : [
                0.9999997019767761,
                1,
                0.9999994039535522
            ],
            "min" : [
                -0.9999990463256836,
                -1,
                -0.9999987483024597
            ],
            "type" : "VEC3"
        },
        {
            "bufferView" : 8,
            "componentType" : 5126,
            "count" : 1984,
            "type" : "VEC3"
        },
        {
            "bufferView" : 9,
            "componentType" : 5126,
            "count" : 1984,
            "type" : "VEC2"
        },
        {
            "bufferView" : 10,
            "componentType" : 5126,
            "count" : 1984,
            "max" : [
                0.9999997019767761,
                1,
                0.9999994039535522
            ],
            "min" : [
                -0.9999990463256836,
                -1,
                -0.9999987483024597
            ],
            "type" : "VEC3"
        },
        {
            "bufferView" : 11,
            "componentType" : 5126,
            "count" : 1984,
            "type" : "VEC3"
        },
        {
            "bufferView" : 12,
            "componentType" : 5126,
            "count" : 1984,
            "type" : "VEC2"
        },
        {
            "bufferView" : 13,
            "componentType" : 5126,
            "count" : 1984,
            "max" : [
                0.9999997019767761,
                1,
                0.9999994039535522
            ],
            "min" : [
                -0.9999990463256836,
                -1,
                -0.9999987483024597
            ],
            "type" : "VEC3"
        },
        {
            "bufferView" : 14,
            "componentType" : 5126,
            "count" : 1984,
            "type" : "VEC3"
        },
        {
            "bufferView" : 15,
            "componentType" : 5126,
            "count" : 1984,
            "type" : "VEC2"
        },
        {
            "bufferView" : 16,
            "componentType" : 5126,
            "count" : 1984,
            "max" : [
                0.9999997019767761,
                1,
                0.9999994039535522
            ],
            "min" : [
                -0.9999990463256836,
                -1,
                -0.9999987483024597
            ],
            "type" : "VEC3"
        },
        {
            "bufferView" : 17,
            "componentType" : 5126,
            "count" : 1984,
            "type" : "VEC3"
        },
        {
            "bufferView" : 18,
            "componentType" : 5126,
            "count" : 1984,
            "type" : "VEC2"
        },
        {
            "bufferView" : 19,
            "componentType" : 5126,
            "count" : 1984,
            "max" : [
                0.9999997019767761,
                1,
                0.9999994039535522
            ],
            "min" : [
                -0.9999990463256836,
                -1,
                -0.9999987483024597
            ],
            "type" : "VEC3"
        },
        {
            "bufferView" : 20,
            "componentType" : 5126,
            "count" : 1984,
            "type" : "VEC3"
        },
        {
            "bufferView" : 21,
            "componentType" : 5126,
            "count" : 1984,
            "type" : "VEC2"
        },
        {
            "bufferView" : 22,
            "componentType" : 5126,
            "count" : 1984,
            "max" : [
                0.9999997019767761,
                1,
                0.9999994039535522
            ],
            "min" : [
                -0.9999990463256836,
                -1,
                -0.9999987483024597
            ],
            "type" : "VEC3"
        },
        {
            "bufferView" : 23,
            "componentType" : 5126,
            "count" : 1984,
            "type" : "VEC3"
        },
        {
            "bufferView" : 24,
            "componentType" : 5126,
            "count" : 1984,
            "type" : "VEC2"
        },
        {
            "bufferView" : 25,
            "componentType" : 5126,
            "count" : 1984,
            "max" : [
                0.9999997019767761,
                1,
                0.9999994039535522
            ],
            "min" : [
                -0.9999990463256836,
                -1,
                -0.9999987483024597
            ],
            "type" : "VEC3"
        },
        {
            "bufferView" : 26,
            "componentType" : 5126,
            "count" : 1984,
            "type" : "VEC3"
        },
        {
            "bufferView" : 27,
            "componentType" : 5126,
            "count" : 1984,
            "type" : "VEC2"
        },
        {
            "bufferView" : 28,
            "componentType" : 5126,
            "count" : 2196,
            "max" : [
                0.9999997019767761,
                1,
                0.9999955296516418
            ],
            "min" : [
                -0.9999990463256836,
                -0.9231139421463013,
                -1.0000025033950806
            ],
            "type" : "VEC3"
        },
        {
            "bufferView" : 29,
            "componentType" : 5126,
            "count" : 2196,
            "type" : "VEC3"
        },
        {
            "bufferView" : 30,
            "componentType" : 5126,
            "count" : 2196,
            "type" : "VEC2"
        },
        {
            "bufferView" : 31,
            "componentType" : 5123,
            "count" : 3324,
            "type" : "SCALAR"
        },
        {
            "bufferView" : 32,
            "componentType" : 5126,
            "count" : 1984,
            "max" : [
                0.9999997019767761,
                1,
                0.9999994039535522
            ],
            "min" : [
                -0.9999990463256836,
                -1,
                -0.9999987483024597
            ],
            "type" : "VEC3"
        },
        {
            "bufferView" : 33,
            "componentType" : 5126,
            "count" : 1984,
            "type" : "VEC3"
        },
        {
            "bufferView" : 34,
            "componentType" : 5126,
            "count" : 1984,
            "type" : "VEC2"
        }
    ],
    "bufferViews" : [
        {
            "buffer" : 0,
            "byteLength" : 23808,
            "byteOffset" : 0
        },
        {
            "buffer" : 0,
            "byteLength" : 23808,
            "byteOffset" : 23808
        },
        {
            "buffer" : 0,
            "byteLength" : 15872,
            "byteOffset" : 47616
        },
        {
            "buffer" : 0,
            "byteLength" : 5760,
            "byteOffset" : 63488
        },
        {
            "buffer" : 0,
            "byteLength" : 23808,
            "byteOffset" : 69248
        },
        {
            "buffer" : 0,
            "byteLength" : 23808,
            "byteOffset" : 93056
        },
        {
            "buffer" : 0,
            "byteLength" : 15872,
            "byteOffset" : 116864
        },
        {
            "buffer" : 0,
            "byteLength" : 23808,
            "byteOffset" : 132736
        },
        {
            "buffer" : 0,
            "byteLength" : 23808,
            "byteOffset" : 156544
        },
        {
            "buffer" : 0,
            "byteLength" : 15872,
            "byteOffset" : 180352
        },
        {
            "buffer" : 0,
            "byteLength" : 23808,
            "byteOffset" : 196224
        },
        {
            "buffer" : 0,
            "byteLength" : 23808,
            "byteOffset" : 220032
        },
        {
            "buffer" : 0,
            "byteLength" : 15872,
            "byteOffset" : 243840
        },
        {
            "buffer" : 0,
            "byteLength" : 23808,
            "byteOffset" : 259712
        },
        {
            "buffer" : 0,
            "byteLength" : 23808,
            "byteOffset" : 283520
        },
        {
            "buffer" : 0,
            "byteLength" : 15872,
            "byteOffset" : 307328
        },
        {
            "buffer" : 0,
            "byteLength" : 23808,
            "byteOffset" : 323200
        },
        {
            "buffer" : 0,
            "byteLength" : 23808,
            "byteOffset" : 347008
        },
        {
            "buffer" : 0,
            "byteLength" : 15872,
            "byteOffset" : 370816
        },
        {
            "buffer" : 0,
            "byteLength" : 23808,
            "byteOffset" : 386688
        },
        {
            "buffer" : 0,
            "byteLength" : 23808,
            "byteOffset" : 410496
        },
        {
            "buffer" : 0,
            "byteLength" : 15872,
            "byteOffset" : 434304
        },
        {
            "buffer" : 0,
            "byteLength" : 23808,
            "byteOffset" : 450176
        },
        {
            "buffer" : 0,
            "byteLength" : 23808,
            "byteOffset" : 473984
        },
        {
            "buffer" : 0,
            "byteLength" : 15872,
            "byteOffset" : 497792
        },
        {
            "buffer" : 0,
            "byteLength" : 23808,
            "byteOffset" : 513664
        },
        {
            "buffer" : 0,
            "byteLength" : 23808,
            "byteOffset" : 537472
        },
        {
            "buffer" : 0,
            "byteLength" : 15872,
            "byteOffset" : 561280
        },
        {
            "buffer" : 0,
            "byteLength" : 26352,
            "byteOffset" : 577152
        },
        {
            "buffer" : 0,
            "byteLength" : 26352,
            "byteOffset" : 603504
        },
        {
            "buffer" : 0,
            "byteLength" : 17568,
            "byteOffset" : 629856
        },
        {
            "buffer" : 0,
            "byteLength" : 6648,
            "byteOffset" : 647424
        },
        {
            "buffer" : 0,
            "byteLength" : 23808,
            "byteOffset" : 654072
        },
        {
            "buffer" : 0,
            "byteLength" : 23808,
            "byteOffset" : 677880
        },
        {
            "buffer" : 0,
            "byteLength" : 15872,
            "byteOffset" : 701688
        }
    ],
    "buffers" : [
        {
            "byteLength" : 717560,
            "uri" : "data:application/octet-stream;base64,"
        }
    ]
}
